<svg width="443" height="202" viewBox="0 0 443 202" fill="none" xmlns="http://www.w3.org/2000/svg">
<path id="Desktop_Arrow" d="M26.4061 23.5892L29.8488 21.5525L29.8488 21.5525L26.4061 23.5892ZM16.0003 6.00005L17.3416 2.23164L13.0475 0.703238L12.0896 5.15942L16.0003 6.00005ZM29.8488 21.5525L19.443 3.96337L12.5577 8.03674L22.9635 25.6259L29.8488 21.5525ZM76.3413 23.2316L17.3416 2.23164L14.659 9.76846L73.6587 30.7684L76.3413 23.2316ZM12.0896 5.15942L0.589334 58.6594L8.41067 60.3406L19.911 6.84069L12.0896 5.15942ZM439.761 176.197C283.768 227.039 113.388 162.761 29.8488 21.5525L22.9635 25.6259C108.411 170.061 282.683 235.807 442.24 183.803L439.761 176.197Z" fill="#550C18"/>
</svg>
